<svg width="20" height="25" viewBox="0 0 20 25" fill="none" xmlns="http://www.w3.org/2000/svg">
<path d="M10.9999 23.9583L10.9999 3.1776L18.2758 11.1349C18.6568 11.5516 19.2898 11.5677 19.6898 11.1708C20.0893 10.7745 20.1053 10.1151 19.7243 9.69792L11.4144 0.610416C11.0364 0.217187 10.5344 -4.13756e-07 9.99994 -4.37119e-07C9.46595 -4.60461e-07 8.96345 0.217187 8.56896 0.628645L0.276058 9.69844C0.0915599 9.9 6.24985e-05 10.1583 6.24872e-05 10.4167C6.24752e-05 10.6917 0.104061 10.9667 0.310558 11.1714C0.710552 11.5682 1.34305 11.5521 1.72404 11.1354L8.99995 3.14479L8.99995 23.9583C8.99995 24.5333 9.44795 25 9.99994 25C10.5519 25 10.9999 24.5333 10.9999 23.9583Z" fill="white"/>
</svg>
