<svg width="17" height="14" viewBox="0 0 17 14" fill="none" xmlns="http://www.w3.org/2000/svg">
<path d="M0.708334 7.69991H14.8392L9.42827 12.793C9.14494 13.0597 9.13396 13.5028 9.40383 13.7828C9.67335 14.0625 10.1217 14.0737 10.4054 13.807L16.5849 7.99005C16.8523 7.72546 17 7.37406 17 6.99991C17 6.62612 16.8523 6.27437 16.5725 5.99823L10.4051 0.193197C10.268 0.0640488 10.0923 0 9.91667 0C9.72967 0 9.54267 0.0727987 9.40348 0.217346C9.1336 0.497343 9.14458 0.940089 9.42792 1.20679L14.8615 6.29992H0.708334C0.317333 6.29992 0 6.61352 0 6.99991C0 7.38631 0.317333 7.69991 0.708334 7.69991Z" fill="#209E53"/>
</svg>
