<svg width="20" height="24" viewBox="0 0 20 24" fill="none" xmlns="http://www.w3.org/2000/svg">
<path d="M9.91466 12.6693C9.93901 12.6693 9.96335 12.6693 9.99257 12.6693C10.0023 12.6693 10.012 12.6693 10.0218 12.6693C10.0364 12.6693 10.0559 12.6693 10.0705 12.6693C11.4971 12.645 12.6511 12.1435 13.5032 11.1843C15.3778 9.0711 15.0661 5.4485 15.0321 5.1028C14.9103 2.50758 13.6833 1.26596 12.6706 0.68654C11.9159 0.253192 11.0345 0.0194763 10.051 0H10.0169C10.012 0 10.0023 0 9.99744 0H9.96822C9.42775 0 8.36629 0.0876435 7.34866 0.667064C6.32615 1.24648 5.07966 2.4881 4.95794 5.1028C4.92385 5.4485 4.61223 9.0711 6.48683 11.1843C7.33405 12.1435 8.48802 12.645 9.91466 12.6693ZM6.25798 5.22452C6.25798 5.20992 6.26285 5.19531 6.26285 5.18557C6.42353 1.69444 8.90189 1.31952 9.96335 1.31952H9.98283C9.99257 1.31952 10.0072 1.31952 10.0218 1.31952C11.3364 1.34874 13.5713 1.88433 13.7223 5.18557C13.7223 5.20018 13.7223 5.21478 13.7272 5.22452C13.732 5.25861 14.0729 8.56958 12.5245 10.3127C11.911 11.0041 11.093 11.345 10.0169 11.3547C10.0072 11.3547 10.0023 11.3547 9.99257 11.3547C9.98283 11.3547 9.97796 11.3547 9.96822 11.3547C8.89702 11.345 8.07415 11.0041 7.46551 10.3127C5.92202 8.57932 6.25311 5.25374 6.25798 5.22452Z" fill="white"/>
<path d="M19.9986 18.6777C19.9986 18.6728 19.9986 18.6679 19.9986 18.6631C19.9986 18.6241 19.9938 18.5852 19.9938 18.5413C19.9646 17.5773 19.9013 15.3229 17.7881 14.6022C17.7735 14.5974 17.754 14.5925 17.7394 14.5876C15.5434 14.0277 13.7175 12.7617 13.698 12.7471C13.401 12.5378 12.992 12.6108 12.7827 12.9078C12.5733 13.2048 12.6463 13.6138 12.9433 13.8232C13.0261 13.8816 14.964 15.2304 17.3888 15.8536C18.5233 16.2577 18.6499 17.4701 18.684 18.5803C18.684 18.6241 18.684 18.6631 18.6889 18.702C18.6937 19.1402 18.6645 19.817 18.5866 20.2066C17.7978 20.6545 14.7059 22.2029 10.0024 22.2029C5.31836 22.2029 2.20702 20.6496 1.41336 20.2017C1.33545 19.8122 1.30137 19.1354 1.31111 18.6971C1.31111 18.6582 1.31598 18.6192 1.31598 18.5754C1.35006 17.4653 1.47666 16.2529 2.61115 15.8487C5.03595 15.2255 6.97385 13.8719 7.05662 13.8183C7.35364 13.609 7.42667 13.2 7.2173 12.9029C7.00793 12.6059 6.59893 12.5329 6.30191 12.7423C6.28244 12.7569 4.46627 14.0228 2.26058 14.5828C2.2411 14.5876 2.22649 14.5925 2.21189 14.5974C0.0987069 15.3229 0.0354089 17.5773 0.00619438 18.5365C0.00619438 18.5803 0.00619427 18.6192 0.00132519 18.6582C0.00132519 18.6631 0.00132519 18.6679 0.00132519 18.6728C-0.00354389 18.926 -0.00841287 20.226 0.249648 20.8785C0.298339 21.0051 0.385983 21.1122 0.502841 21.1852C0.648913 21.2826 4.14978 23.5127 10.0073 23.5127C15.8648 23.5127 19.3657 21.2778 19.5117 21.1852C19.6237 21.1122 19.7162 21.0051 19.7649 20.8785C20.0084 20.2309 20.0035 18.9309 19.9986 18.6777Z" fill="white"/>
</svg>
