<svg width="25" height="23" viewBox="0 0 25 23" fill="none" xmlns="http://www.w3.org/2000/svg">
<path d="M6.98351 15.9761H7.77877H21.338C21.6656 15.9761 21.9543 15.7609 22.0478 15.4469L24.9692 5.63788C25.0359 5.41375 24.9929 5.17127 24.8531 4.98377C24.7133 4.79627 24.4932 4.68582 24.2594 4.68582H5.40963L4.41295 1.33914C4.31944 1.02517 4.03072 0.809937 3.70308 0.809937H0.740675C0.331641 0.809888 0 1.14148 0 1.55056C0 1.9596 0.331641 2.29124 0.740675 2.29124H3.15088L4.14283 5.62186C4.14586 5.63285 4.14903 5.64373 4.15255 5.65448L6.78761 14.5022C5.28351 14.6034 4.09049 15.8586 4.09049 17.3879C4.09049 18.9831 5.38829 20.2809 6.98346 20.2809H7.71876C8.0401 21.3826 9.05847 22.1902 10.2626 22.1902C11.4666 22.1902 12.485 21.3827 12.8064 20.2809H16.7362C17.0575 21.3826 18.0759 22.1902 19.28 22.1902C20.484 22.1902 21.5024 21.3827 21.8238 20.2809H22.778C23.1871 20.2809 23.5187 19.9493 23.5187 19.5402C23.5187 19.1312 23.1871 18.7996 22.778 18.7996H21.8238C21.5024 17.6978 20.4841 16.8903 19.28 16.8903C18.0759 16.8903 17.0575 17.6978 16.7362 18.7996H12.8064C12.485 17.6978 11.4667 16.8903 10.2626 16.8903C9.05847 16.8903 8.04005 17.6978 7.71876 18.7996H6.98346C6.20504 18.7996 5.57179 18.1663 5.57179 17.3878C5.57179 16.6094 6.20509 15.9761 6.98351 15.9761ZM17.849 6.16708H23.266L22.2465 9.59028H17.849V6.16708ZM17.8489 11.0716H21.8053L20.7858 14.4948H17.8489V11.0716ZM12.3684 6.16708H16.3677V9.59028H12.3684V6.16708ZM12.3683 11.0716H16.3676V14.4948H12.3683V11.0716ZM10.8871 14.4948H8.33102L7.31154 11.0716H10.8871V14.4948ZM5.85089 6.16708H10.8871V9.59028H6.87037L5.85089 6.16708ZM19.28 18.3716C19.9244 18.3716 20.4486 18.8958 20.4486 19.5402C20.4486 20.1846 19.9244 20.7088 19.28 20.7088C18.6356 20.7088 18.1114 20.1846 18.1114 19.5402C18.1114 18.8958 18.6356 18.3716 19.28 18.3716ZM10.2626 18.3716C10.907 18.3716 11.4312 18.8958 11.4312 19.5402C11.4312 20.1846 10.907 20.7088 10.2626 20.7088C9.61823 20.7088 9.09401 20.1846 9.09401 19.5402C9.09401 18.8958 9.61823 18.3716 10.2626 18.3716Z" fill="#535C67"/>
</svg>
