<svg width="37" height="38" viewBox="0 0 37 38" fill="none" xmlns="http://www.w3.org/2000/svg">
<path d="M19.7273 25.0149H29.5909C29.9607 25.0149 30.2073 24.7616 30.2073 24.3817V18.6835C30.2073 18.3036 29.9607 18.0504 29.5909 18.0504H19.7273C19.3574 18.0504 19.1108 18.3036 19.1108 18.6835V24.3817C19.1108 24.7616 19.3574 25.0149 19.7273 25.0149ZM20.3437 19.3166H28.9744V23.7486H20.3437V19.3166Z" fill="#209E53"/>
<path d="M3.08276 16.784H8.01457C8.38446 16.784 8.63102 16.5308 8.63102 16.1509C8.63102 15.7711 8.38446 15.5178 8.01457 15.5178H3.08276C2.71287 15.5178 2.46631 15.7711 2.46631 16.1509C2.46631 16.5308 2.71287 16.784 3.08276 16.784Z" fill="#209E53"/>
<path d="M10.4802 16.784H15.412C15.7819 16.784 16.0285 16.5308 16.0285 16.1509C16.0285 15.7711 15.7819 15.5178 15.412 15.5178H10.4802C10.1103 15.5178 9.86377 15.7711 9.86377 16.1509C9.86377 16.5308 10.1103 16.784 10.4802 16.784Z" fill="#209E53"/>
<path d="M3.08276 19.3166H11.0969C11.4668 19.3166 11.7133 19.0634 11.7133 18.6835C11.7133 18.3036 11.4668 18.0504 11.0969 18.0504H3.08276C2.71287 18.0504 2.46631 18.3036 2.46631 18.6835C2.46631 19.0634 2.71287 19.3166 3.08276 19.3166Z" fill="#209E53"/>
<path d="M15.4117 18.0503H13.5623C13.1924 18.0503 12.9458 18.3035 12.9458 18.6834C12.9458 19.0633 13.1924 19.3165 13.5623 19.3165H15.4117C15.7816 19.3165 16.0281 19.0633 16.0281 18.6834C16.0281 18.3035 15.7816 18.0503 15.4117 18.0503Z" fill="#209E53"/>
<path d="M36.4336 10.1995C36.0021 9.62967 35.4473 9.31308 34.7691 9.24979L33.2896 9.06564V7.28702V6.0208C33.2896 4.62793 32.1799 3.48828 30.8237 3.48828H2.46587C1.10965 3.48821 0 4.62785 0 6.0208V7.28709V12.3522V26.2812C0 27.4247 0.748221 28.3971 1.76656 28.7087C1.73549 29.9895 2.67906 31.1013 3.94548 31.2196L32.4266 34.5119C32.4882 34.5119 32.6115 34.5119 32.6731 34.5119C33.9061 34.5119 35.0158 33.5622 35.139 32.3593L36.9884 12.0356C37.0501 11.4024 36.8651 10.706 36.4336 10.1995ZM1.23297 7.92021H32.0567V9.56638V11.719H1.23297V7.92021ZM2.46587 4.7545H30.8237C31.5018 4.7545 32.0566 5.32432 32.0566 6.0208V6.65391H1.23297V6.0208C1.23297 5.32432 1.7878 4.7545 2.46587 4.7545ZM1.23297 26.2811V12.9852H32.0567V26.2811C32.0567 26.9776 31.5019 27.5474 30.8237 27.5474H2.52757H2.46594C1.7878 27.5474 1.23297 26.9776 1.23297 26.2811ZM35.7555 11.7823L33.9061 32.106C33.8444 32.8024 33.2279 33.3089 32.5498 33.2456L4.13035 29.9533C3.5139 29.89 3.08232 29.3835 3.0207 28.8137H30.8237C32.1799 28.8137 33.2895 27.674 33.2895 26.2812V12.3521V10.2628L34.7074 10.3894C35.0157 10.3894 35.3239 10.5794 35.5088 10.8326C35.6939 11.0858 35.8172 11.4657 35.7555 11.7823Z" fill="#209E53"/>
</svg>
