<svg width="53" height="53" viewBox="0 0 53 53" fill="none" xmlns="http://www.w3.org/2000/svg">
<path d="M12.3669 34.8917C9.44392 34.8917 7.06689 37.2688 7.06689 40.1917C7.06689 43.1147 9.44392 45.4917 12.3669 45.4917C15.2899 45.4917 17.6669 43.1147 17.6669 40.1917C17.6669 37.2688 15.2898 34.8917 12.3669 34.8917ZM12.3669 43.725C10.4182 43.725 8.8336 42.1403 8.8336 40.1917C8.8336 38.243 10.4183 36.6584 12.3669 36.6584C14.3155 36.6584 15.9002 38.2431 15.9002 40.1917C15.9002 42.1403 14.3155 43.725 12.3669 43.725Z" fill="#209E53"/>
<path d="M42.4001 34.8917C39.4771 34.8917 37.1001 37.2688 37.1001 40.1917C37.1001 43.1147 39.4771 45.4917 42.4001 45.4917C45.3231 45.4917 47.7001 43.1147 47.7001 40.1917C47.7001 37.2688 45.3231 34.8917 42.4001 34.8917ZM42.4001 43.725C40.4514 43.725 38.8668 42.1403 38.8668 40.1917C38.8668 38.243 40.4515 36.6584 42.4001 36.6584C44.3488 36.6584 45.9334 38.2431 45.9334 40.1917C45.9334 42.1403 44.3488 43.725 42.4001 43.725Z" fill="#209E53"/>
<path d="M52.8597 29.9973L44.9097 17.6306C44.7472 17.3779 44.4672 17.2251 44.1668 17.2251H34.4502C33.9617 17.2251 33.5669 17.6208 33.5669 18.1084V40.1917C33.5669 40.6802 33.9617 41.075 34.4502 41.075H37.9835V39.3083H35.3335V18.9918H43.6845L51.2335 30.7348V39.3085H46.8168V41.0751H52.1168C52.6053 41.0751 53.0001 40.6803 53.0001 40.1918V30.4751C53.0002 30.3064 52.9516 30.1394 52.8597 29.9973Z" fill="#209E53"/>
<path d="M38.8667 28.7083V22.525H45.9334V20.7583H37.9834C37.4949 20.7583 37.1001 21.154 37.1001 21.6416V29.5916C37.1001 30.0801 37.4949 30.4749 37.9834 30.4749H51.2334V28.7082H38.8667V28.7083Z" fill="#209E53"/>
<path d="M34.45 11.0417H0.883299C0.39574 11.0417 0 11.4375 0 11.925V40.1917C0 40.6802 0.39574 41.075 0.883299 41.075H7.95V39.3083H1.7667V12.8083H33.5667V39.3083H16.7833V41.075H34.45C34.9385 41.075 35.3333 40.6802 35.3333 40.1917V11.925C35.3333 11.4375 34.9385 11.0417 34.45 11.0417Z" fill="#209E53"/>
<path d="M6.1833 35.775H0.883301V37.5417H6.1833V35.775Z" fill="#209E53"/>
<path d="M33.567 35.775H18.5503V37.5417H33.567V35.775Z" fill="#209E53"/>
<path d="M52.1168 35.775H48.5835V37.5417H52.1168V35.775Z" fill="#209E53"/>
<path d="M34.4504 14.575H3.53369V16.3417H34.4504V14.575Z" fill="#209E53"/>
<path d="M13.2501 39.3083H11.4834V41.0751H13.2501V39.3083Z" fill="#209E53"/>
<path d="M43.2833 39.3083H41.5166V41.0751H43.2833V39.3083Z" fill="#209E53"/>
<path d="M15.9004 7.5083H3.53369V9.275H15.9004V7.5083Z" fill="#209E53"/>
<path d="M1.7667 7.5083H0V9.275H1.7667V7.5083Z" fill="#209E53"/>
</svg>
