<svg width="14" height="16" viewBox="0 0 14 16" fill="none" xmlns="http://www.w3.org/2000/svg">
<path fill-rule="evenodd" clip-rule="evenodd" d="M0 0.78686C0 1.45998 0.367606 2.05223 2.54545 4.88733L5.09091 8.20116V12.1006V16L7 14.5023L8.90909 13.0047V10.6028V8.20116L11.4545 4.88733C13.6324 2.05223 14 1.45998 14 0.78686V0H7H0V0.78686ZM11.8366 2.27705C11.435 2.79622 10.4037 4.14601 9.54439 5.27609L7.98212 7.33099H7H6.01788L4.45561 5.27609C3.5963 4.14601 2.56497 2.79622 2.16342 2.27705L1.43373 1.33291H7H12.5663L11.8366 2.27705ZM7.63636 10.5104C7.63636 12.3045 7.61833 12.3709 7 12.8497L6.36364 13.3424V11.0032V8.6639H7H7.63636V10.5104Z" fill="white"/>
</svg>
