<svg width="42" height="42" viewBox="0 0 42 42" fill="none" xmlns="http://www.w3.org/2000/svg">
<g clip-path="url(#clip0)">
<path d="M41.2998 40.2499H34.9998C34.6132 40.2499 34.2998 40.5633 34.2998 40.9499C34.2998 41.3365 34.6132 41.6499 34.9998 41.6499H41.2998C41.6864 41.6499 41.9998 41.3365 41.9998 40.9499C41.9998 40.5633 41.6864 40.2499 41.2998 40.2499Z" fill="#209E53"/>
<path d="M32.2 40.2499H0.699973C0.313359 40.2499 0 40.5634 0 40.95C0 41.3366 0.313359 41.6499 0.699973 41.6499H32.2C32.5866 41.6499 32.8999 41.3366 32.8999 40.95C32.8999 40.5634 32.5866 40.2499 32.2 40.2499Z" fill="#209E53"/>
<path d="M0 38.1499C0 38.5365 0.313359 38.8499 0.699973 38.8499H41.2999C41.6866 38.8499 41.9999 38.5365 41.9999 38.1499C41.9999 37.7633 41.6866 37.45 41.2999 37.45H38.3712C38.4541 37.2258 38.4977 36.9889 38.5 36.75V23.4499C38.5 22.2902 37.5597 21.3499 36.4 21.3499H32.8999C31.7402 21.3499 30.7999 22.2901 30.7999 23.4499V26.25H29.4V21.35C29.3993 20.814 29.1922 20.2989 28.8218 19.9115L31.9116 14.35L33.8016 16.2442C34.0762 16.5095 34.5128 16.5057 34.7828 16.2357C35.0529 15.9656 35.0566 15.5291 34.7913 15.2544L32.62 13.0781L33.9129 10.7513L35.9065 12.7449C36.1811 13.0102 36.6178 13.0064 36.8877 12.7364C37.1578 12.4664 37.1615 12.0298 36.8963 11.7551L34.6199 9.47878L36.1599 6.7012L38.0037 8.54501C38.2783 8.8103 38.715 8.80653 38.9849 8.53648C39.255 8.26644 39.2588 7.82986 38.9935 7.55522L36.8683 5.42865L38.661 2.20162L40.8051 4.34501C41.0798 4.6103 41.5164 4.60653 41.7864 4.33648C42.0564 4.06643 42.0602 3.62986 41.7949 3.35522L38.9949 0.555005C38.8396 0.39972 38.6205 0.326302 38.403 0.356735C38.1855 0.387169 37.9949 0.517845 37.8882 0.709716L27.573 19.2772C27.4827 19.2621 27.3915 19.253 27.3 19.2499V17.1499C27.3 16.3767 26.6732 15.7499 25.9 15.7499V6.64993C25.8977 4.33131 24.0186 2.45222 21.7 2.44993H20.2999C17.9813 2.45222 16.1022 4.33131 16.0999 6.64993V15.75C15.3267 15.75 14.6999 16.3768 14.6999 17.15V19.25C14.6085 19.253 14.5172 19.2621 14.4269 19.2773L4.11182 0.709716C4.00444 0.519075 3.81413 0.389548 3.59732 0.359688C3.37993 0.330813 3.1614 0.403903 3.00513 0.557794L0.205078 3.35785C-0.042082 3.63511 -0.0296133 4.05708 0.233379 4.31934C0.496371 4.58159 0.918422 4.59275 1.19495 4.34485L3.33908 2.20145L5.13179 5.42848L3.00513 7.55506C2.82319 7.73077 2.75018 7.99106 2.81425 8.23584C2.87831 8.48062 3.06945 8.67167 3.31414 8.73573C3.55884 8.7998 3.81913 8.72679 3.99492 8.54485L5.83874 6.70103L7.37871 9.47861L5.10513 11.7551C4.92319 11.9309 4.85018 12.1911 4.91425 12.4358C4.97831 12.6806 5.16945 12.8717 5.41414 12.9357C5.65884 12.9998 5.91913 12.9268 6.09492 12.7448L8.08853 10.7512L9.38003 13.0781L7.20374 15.2551C7.02179 15.4309 6.94878 15.6911 7.01285 15.9359C7.07692 16.1806 7.26805 16.3718 7.51275 16.4358C7.75753 16.4998 8.01773 16.4268 8.19353 16.2449L10.0884 14.35L13.1782 19.9108C12.8077 20.2984 12.6007 20.8138 12.6 21.35V26.25H11.2V23.45C11.2 22.2903 10.2598 21.35 9.09997 21.35H5.60003C4.44027 21.35 3.50003 22.2902 3.50003 23.45V36.75C3.50232 36.989 3.54588 37.2258 3.62882 37.45H0.699973C0.313359 37.45 0 37.7633 0 38.1499ZM32.2 33.5398L33.3948 32.3449C33.6601 32.0703 33.6564 31.6336 33.3863 31.3636C33.1163 31.0936 32.6797 31.0898 32.405 31.3551L32.2 31.5602V30.0398L33.3948 28.845C33.6601 28.5703 33.6564 28.1337 33.3863 27.8637C33.1163 27.5937 32.6797 27.5899 32.405 27.8552L32.2 28.0602V26.5399L33.3948 25.345C33.6601 25.0704 33.6564 24.6337 33.3863 24.3638C33.1163 24.0937 32.6797 24.0899 32.405 24.3552L32.2 24.5603V23.4501C32.2 23.0635 32.5134 22.7501 32.8999 22.7501H36.4C36.7866 22.7501 37.0999 23.0635 37.0999 23.4501V24.5601L36.8949 24.3551C36.6202 24.0898 36.1836 24.0935 35.9136 24.3636C35.6436 24.6336 35.6398 25.0702 35.9051 25.3448L37.0999 26.5397V28.0601L36.8949 27.855C36.6202 27.5897 36.1836 27.5935 35.9136 27.8635C35.6436 28.1336 35.6398 28.5702 35.9051 28.8448L37.0999 30.0397V31.56L36.8949 31.3549C36.6202 31.0897 36.1836 31.0934 35.9136 31.3635C35.6436 31.6335 35.6398 32.0701 35.9051 32.3447L37.0999 33.5396V35.0601L36.8949 34.8551C36.6202 34.5898 36.1836 34.5935 35.9136 34.8636C35.6436 35.1336 35.6398 35.5702 35.9051 35.8448L37.051 36.9907C36.9519 37.2653 36.6918 37.4487 36.4 37.45H32.8999C32.6081 37.4487 32.348 37.2653 32.2489 36.9907L33.3948 35.8448C33.6601 35.5702 33.6564 35.1336 33.3863 34.8636C33.1163 34.5935 32.6797 34.5898 32.405 34.8551L32.2 35.0601V33.5398ZM17.5 6.64993C17.5 5.10356 18.7536 3.84995 20.2999 3.84995H21.7C23.2463 3.84995 24.4999 5.10356 24.4999 6.64993V15.75H17.5V6.64993ZM16.1 17.1499H25.9001V19.2499H16.1V17.1499ZM14 21.3499C14 20.9633 14.3134 20.65 14.7 20.65H27.3C27.6866 20.65 28 20.9633 28 21.3499V26.25H27.3V22.75C27.3 22.3633 26.9866 22.05 26.6 22.05H24.5C24.5 21.6634 24.1867 21.35 23.8001 21.35C23.4134 21.35 23.1001 21.6634 23.1001 22.05H21.7001C21.7001 21.6634 21.3867 21.35 21.0001 21.35C20.6135 21.35 20.3001 21.6634 20.3001 22.05H18.9C18.9 21.6634 18.5866 21.35 18.2 21.35C17.8134 21.35 17.5001 21.6634 17.5001 22.05H15.4001C15.0134 22.05 14.7001 22.3633 14.7001 22.75V26.25H14.0001V21.3499H14ZM25.9 23.4499V26.25H24.4999V23.45H25.9V23.4499ZM23.1 23.4499V26.25H21.7V23.45H23.1V23.4499ZM20.3 23.4499V26.25H18.9V23.45H20.3V23.4499ZM17.5 23.4499V26.25H16.0999V23.45H17.5V23.4499ZM11.2 27.6499H30.7999V31.8499H28.6999V31.15C28.6999 30.3767 28.0731 29.7499 27.2999 29.7499H14.7C13.9268 29.7499 13.3 30.3767 13.3 31.15V31.8499H11.2V27.6499ZM27.3 31.15V32.55V33.95H14.7V31.15H27.3V31.15ZM11.2 36.75V33.25H13.3V33.9499C13.3 34.7232 13.9268 35.35 14.7 35.35H27.3C28.0732 35.35 28.7 34.7232 28.7 33.9499V33.25H30.8V36.75C30.8023 36.989 30.846 37.2258 30.9288 37.45H11.0712C11.1541 37.2258 11.1977 36.9889 11.2 36.75ZM4.89997 33.5398L6.09492 32.3448C6.36021 32.0702 6.35644 31.6335 6.08639 31.3636C5.81634 31.0935 5.37977 31.0897 5.10513 31.355L4.90005 31.5601V30.0397L6.09492 28.8449C6.36021 28.5702 6.35644 28.1336 6.08639 27.8636C5.81634 27.5936 5.37977 27.5898 5.10513 27.8551L4.90005 28.0602V26.5398L6.09492 25.3448C6.36021 25.0702 6.35644 24.6336 6.08639 24.3636C5.81634 24.0935 5.37977 24.0898 5.10513 24.3551L4.90005 24.5601V23.4499C4.90005 23.0633 5.21341 22.75 5.60003 22.75H9.10005C9.48667 22.75 9.80003 23.0633 9.80003 23.4499V24.5601L9.59495 24.3551C9.32031 24.0898 8.88366 24.0935 8.61369 24.3636C8.34364 24.6336 8.33987 25.0702 8.60516 25.3448L9.80003 26.5397V28.0601L9.59495 27.855C9.32031 27.5897 8.88366 27.5935 8.61369 27.8635C8.34364 28.1336 8.33987 28.5702 8.60516 28.8448L9.80003 30.0397V31.56L9.59495 31.3549C9.32031 31.0897 8.88366 31.0934 8.61369 31.3635C8.34364 31.6335 8.33987 32.0701 8.60516 32.3447L9.80003 33.5396V35.0601L9.59495 34.8551C9.32031 34.5898 8.88366 34.5935 8.61369 34.8636C8.34364 35.1336 8.33987 35.5702 8.60516 35.8448L9.75105 36.9907C9.65196 37.2653 9.39192 37.4487 9.10005 37.45H5.60003C5.30816 37.4487 5.04812 37.2653 4.94903 36.9907L6.09492 35.8448C6.36021 35.5702 6.35644 35.1336 6.08639 34.8636C5.81634 34.5935 5.37977 34.5898 5.10513 34.8551L4.90005 35.0601V33.5398H4.89997Z" fill="#209E53"/>
</g>
<defs>
<clipPath id="clip0">
<rect width="42" height="42" fill="white"/>
</clipPath>
</defs>
</svg>
