<svg width="43" height="43" viewBox="0 0 43 43" fill="none" xmlns="http://www.w3.org/2000/svg">
<g clip-path="url(#clip0)">
<path d="M33.9834 42.1743L31.7244 34.9606C31.7113 34.9156 31.7092 34.8676 31.7183 34.8215L32.2439 32.1718C32.2574 32.1043 32.2697 32.0365 32.282 31.9687L32.3031 31.8535C32.3673 31.5123 32.1425 31.1837 31.8012 31.1196C31.4599 31.0557 31.1315 31.2803 31.0673 31.6215L31.0448 31.7444C31.0337 31.8054 31.0226 31.8664 31.0107 31.9272L30.4851 34.5769C30.4369 34.8197 30.4479 35.0737 30.517 35.3115L32.776 42.5251C32.8559 42.8 33.107 42.9786 33.3795 42.9786C33.4376 42.9786 33.4966 42.9705 33.5552 42.9535C33.8885 42.8566 34.0803 42.5077 33.9834 42.1743Z" fill="#209E53"/>
<path d="M31.597 20.6822V25.959C31.597 26.9662 31.5462 27.9879 31.4459 28.9958C31.4115 29.3414 31.6638 29.6494 32.0093 29.6837C32.355 29.7185 32.6628 29.4659 32.6972 29.1204C32.8016 28.0712 32.8545 27.0076 32.8545 25.9591V20.6822C32.8545 19.4147 31.8233 18.3835 30.5558 18.3835C29.3665 18.3835 28.3602 19.3121 28.2645 20.4975L27.9245 24.7135C25.4964 26.5782 23.7836 29.2435 23.0975 32.2289L22.644 34.2017C22.5663 34.5401 22.7776 34.8775 23.116 34.9552C23.1634 34.9661 23.2107 34.9713 23.2574 34.9713C23.5439 34.9713 23.8027 34.7743 23.8696 34.4833L24.3231 32.5104C24.9503 29.7812 26.5257 27.3478 28.759 25.6584L28.9079 25.5459C29.0509 25.4377 29.1409 25.2737 29.1553 25.0949L29.5179 20.5985C29.5612 20.0615 30.0171 19.6409 30.5558 19.6409C31.1299 19.641 31.597 20.1081 31.597 20.6822Z" fill="#209E53"/>
<path d="M22.5259 39.288C22.4614 39.0278 22.2861 38.8116 22.0447 38.6952L21.7484 38.5522C20.0683 37.741 18.7782 36.3339 18.1159 34.5897L17.8789 33.9658H21.1841C21.5313 33.9658 21.8128 33.6843 21.8128 33.3371C21.8128 32.9899 21.5313 32.7084 21.1841 32.7084H12.4518C11.2367 32.7084 10.2482 31.7199 10.2482 30.5048V10.3799C10.2482 10.0327 9.96666 9.75122 9.61944 9.75122C9.27222 9.75122 8.99072 10.0327 8.99072 10.3799V30.5048C8.99072 32.4132 10.5433 33.9658 12.4518 33.9658H16.5339L16.9404 35.0361C17.7174 37.0821 19.2307 38.733 21.2016 39.6845L21.3456 39.754L22.0292 42.5219C22.0999 42.8083 22.3566 43 22.639 43C22.6889 43 22.7396 42.994 22.7903 42.9815C23.1273 42.8982 23.3331 42.5575 23.2499 42.2203L22.5259 39.288Z" fill="#209E53"/>
<path d="M9.61944 8.32922C9.96666 8.32922 10.2482 8.04772 10.2482 7.7005V3.46103C10.2482 2.24594 11.2367 1.25743 12.4518 1.25743H14.304V1.706C14.304 3.08875 15.4289 4.21373 16.8118 4.21373H21.6585C23.0412 4.21373 24.1662 3.08883 24.1662 1.706V1.25743H26.0185C27.2336 1.25743 28.2221 2.24594 28.2221 3.46103V16.9828C28.2221 17.3301 28.5036 17.6116 28.8508 17.6116C29.198 17.6116 29.4795 17.3301 29.4795 16.9828V3.46103C29.4795 1.55259 27.9268 0 26.0184 0H12.4518C10.5433 0 8.99072 1.55259 8.99072 3.46103V7.7005C8.99072 8.04772 9.27222 8.32922 9.61944 8.32922ZM22.9087 1.706C22.9087 2.3954 22.3479 2.9563 21.6584 2.9563H16.8117C16.1223 2.9563 15.5614 2.39549 15.5614 1.706V1.25743H22.9086V1.706H22.9087Z" fill="#209E53"/>
<path d="M22.3833 24.8535C22.0361 24.8535 21.7546 25.135 21.7546 25.4822C21.7546 25.8294 22.0361 26.1109 22.3833 26.1109H24.0547C24.7105 26.1109 25.2441 25.5774 25.2441 24.9216V22.4626C25.2441 21.8068 24.7105 21.2732 24.0547 21.2732H14.4159C13.7601 21.2732 13.2266 21.8068 13.2266 22.4626V24.9216C13.2266 25.5774 13.7601 26.1109 14.4159 26.1109H19.7041C20.0513 26.1109 20.3328 25.8294 20.3328 25.4822C20.3328 25.135 20.0513 24.8535 19.7041 24.8535H14.484V22.5306H23.9866V24.8535H22.3833Z" fill="#209E53"/>
<path d="M25.4343 8.37044C25.1927 8.12113 24.7947 8.11468 24.5453 8.35636L22.0742 10.7502C21.861 10.6265 21.6143 10.5546 21.3506 10.5546H17.1198C16.3211 10.5546 15.6714 11.2044 15.6714 12.003V15.9718C15.6714 16.7704 16.3211 17.4201 17.1198 17.4201H21.3506C22.1492 17.4201 22.799 16.7704 22.799 15.9718V12.003C22.799 11.9382 22.7932 11.8749 22.785 11.8124L25.4202 9.25953C25.6696 9.01785 25.676 8.61983 25.4343 8.37044ZM21.5417 15.9716C21.5417 16.0769 21.456 16.1625 21.3507 16.1625H17.1199C17.0146 16.1625 16.9289 16.0769 16.9289 15.9716V12.0028C16.9289 11.8975 17.0146 11.8119 17.1199 11.8119H20.9782L19.0353 13.694L18.651 13.3592C18.3891 13.1312 17.992 13.1585 17.7639 13.4204C17.5358 13.6822 17.5632 14.0793 17.8251 14.3074L18.645 15.0216C18.7637 15.1249 18.9109 15.1762 19.0579 15.1762C19.216 15.1762 19.3738 15.1168 19.4954 14.999L21.5417 13.0167V15.9716Z" fill="#209E53"/>
</g>
<defs>
<clipPath id="clip0">
<rect width="43" height="43" fill="white"/>
</clipPath>
</defs>
</svg>
