<svg width="33" height="33" viewBox="0 0 33 33" fill="none" xmlns="http://www.w3.org/2000/svg">
<g clip-path="url(#clip0)">
<path d="M5.48296 29.3218C5.36314 29.2018 5.19686 29.1329 5.02734 29.1329C4.85783 29.1329 4.69154 29.2018 4.57166 29.3218C4.45178 29.4417 4.38281 29.608 4.38281 29.7775C4.38281 29.947 4.45171 30.1133 4.57166 30.2331C4.69154 30.353 4.85783 30.422 5.02734 30.422C5.19686 30.422 5.36314 30.353 5.48296 30.2331C5.60285 30.1133 5.67188 29.947 5.67188 29.7775C5.67188 29.608 5.60291 29.4417 5.48296 29.3218Z" fill="#209E53"/>
<path d="M30.2623 11.7909C30.1424 11.671 29.9768 11.6021 29.8066 11.6021C29.6371 11.6021 29.4708 11.671 29.351 11.7909C29.2311 11.9108 29.1621 12.0771 29.1621 12.2466C29.1621 12.4161 29.2311 12.5824 29.351 12.7022C29.4708 12.8221 29.6371 12.8911 29.8066 12.8911C29.9768 12.8911 30.1424 12.8221 30.2623 12.7022C30.3828 12.5824 30.4517 12.4161 30.4517 12.2466C30.4517 12.0771 30.3828 11.9108 30.2623 11.7909Z" fill="#209E53"/>
<path d="M32.8114 0.188783C32.6904 0.0679336 32.5265 0 32.3555 0L16.5004 0.000837891C16.1445 0.000837891 15.8559 0.289459 15.8559 0.645369V2.48854L9.74648 4.12558C9.40263 4.21775 9.19857 4.57114 9.29074 4.91494L12.4571 16.7319L9.71793 19.4711C9.3693 18.962 8.78394 18.6273 8.12181 18.6273H1.93451C0.868322 18.6273 0.000976562 19.4947 0.000976562 20.5608V31.0664C0.000976562 32.1326 0.868322 33 1.93451 33H8.12188C9.02764 33 9.7896 32.3738 9.99843 31.5318L10.7648 32.2001C11.3564 32.716 12.1144 33.0001 12.8993 33.0001H32.3556C32.7115 33.0001 33.0001 32.7114 33.0001 32.3555V0.644531C33 0.473602 32.9322 0.309633 32.8114 0.188783ZM8.76628 31.0665C8.76628 31.4218 8.47714 31.711 8.12175 31.711H1.93444C1.57905 31.711 1.28991 31.4219 1.28991 31.0665V20.5609C1.28991 20.2055 1.57905 19.9163 1.93444 19.9163H4.3836V27.341C4.3836 27.6969 4.67222 27.9855 5.02813 27.9855C5.38404 27.9855 5.67266 27.6969 5.67266 27.341V19.9163H8.12181C8.47721 19.9163 8.76635 20.2055 8.76635 20.5609V31.0665H8.76628ZM10.7026 5.20388L15.8559 3.82304V6.21135L15.424 6.32711C15.2588 6.37138 15.1181 6.47934 15.0326 6.62739C14.9471 6.77544 14.9239 6.95133 14.9682 7.11646C15.2159 8.04078 14.6654 8.99424 13.7411 9.24193C13.5758 9.28628 13.4348 9.39443 13.3494 9.5428C13.264 9.69111 13.241 9.86732 13.2857 10.0326L15.798 19.3356H14.5044L13.8378 16.7276C13.8166 16.6446 13.7794 16.5681 13.7298 16.5015L10.7026 5.20388ZM15.8559 9.1671V14.6057L14.6804 10.2529C15.1714 9.99932 15.5733 9.61995 15.8559 9.1671ZM25.1155 31.7109H12.8992C12.4258 31.7109 11.9686 31.5396 11.6118 31.2285L10.0553 29.8711V20.9567L12.8692 18.1428L13.3796 20.1396C13.4525 20.4249 13.7095 20.6245 14.004 20.6245L26.6757 20.6253C27.1733 20.6253 27.5781 21.03 27.5781 21.5276C27.5781 22.0252 27.1733 22.4299 26.6757 22.4299H20.1827C19.8268 22.4299 19.5382 22.7186 19.5382 23.0745C19.5382 23.4304 19.8268 23.719 20.1827 23.719H28.6931C29.1907 23.719 29.5955 24.1238 29.5955 24.6214C29.5955 25.1189 29.1907 25.5237 28.6931 25.5237H20.1827C19.8268 25.5237 19.5382 25.8123 19.5382 26.1682C19.5382 26.5241 19.8268 26.8128 20.1827 26.8128H27.314C27.8116 26.8128 28.2164 27.2175 28.2164 27.7151C28.2164 28.2127 27.8116 28.6174 27.314 28.6174H20.1827C19.8268 28.6174 19.5382 28.9061 19.5382 29.262C19.5382 29.6179 19.8268 29.9065 20.1827 29.9065H25.1155C25.6131 29.9065 26.0179 30.3113 26.0179 30.8089C26.0178 31.3062 25.613 31.7109 25.1155 31.7109ZM31.7111 31.7109H31.711H27.1117C27.2367 31.4355 27.3069 31.1302 27.3069 30.8086C27.3069 30.487 27.2367 30.1817 27.1117 29.9062H27.314C28.5223 29.9062 29.5054 28.9232 29.5054 27.7149C29.5054 27.3625 29.4213 27.0294 29.2728 26.7341C30.2006 26.4793 30.8844 25.6288 30.8844 24.6212C30.8844 24.1324 30.7234 23.6805 30.4519 23.3157V15.1469C30.4519 14.791 30.1632 14.5024 29.8073 14.5024C29.4514 14.5024 29.1628 14.791 29.1628 15.1469V22.4812C29.0113 22.448 28.8543 22.4299 28.693 22.4299H28.6719C28.7968 22.1545 28.867 21.8492 28.867 21.5276C28.867 20.3192 27.884 19.3363 26.6757 19.3363H25.6396C26.7397 18.8645 27.5124 17.771 27.5124 16.5C27.5124 14.7991 26.1287 13.4154 24.4279 13.4154C22.7271 13.4154 21.3433 14.7991 21.3433 16.5C21.3433 17.771 22.1161 18.8645 23.2162 19.3363H19.693V7.08101C20.8443 6.8301 21.7529 5.92163 22.0037 4.77018H26.852C27.1028 5.92163 28.0113 6.8301 29.1627 7.08101V9.08486C29.1627 9.44077 29.4514 9.72939 29.8073 9.72939C30.1632 9.72939 30.4518 9.44077 30.4518 9.08486V6.50558C30.4518 6.14967 30.1632 5.86104 29.8073 5.86104C28.8503 5.86104 28.0719 5.08252 28.0719 4.12564C28.0719 3.76973 27.7833 3.48111 27.4274 3.48111H21.4284C21.0724 3.48111 20.7838 3.76973 20.7838 4.12564C20.7838 5.08258 20.0054 5.86104 19.0485 5.86104C18.6926 5.86104 18.404 6.14967 18.404 6.50558V19.3362H17.1451V1.28977L31.7111 1.28906V31.7109ZM24.428 18.2955C23.4379 18.2955 22.6325 17.4901 22.6325 16.5001C22.6325 15.5101 23.438 14.7045 24.428 14.7045C25.418 14.7045 26.2235 15.51 26.2235 16.5C26.2235 17.49 25.4181 18.2955 24.428 18.2955Z" fill="#209E53"/>
</g>
<defs>
<clipPath id="clip0">
<rect width="33" height="33" fill="white"/>
</clipPath>
</defs>
</svg>
