<svg width="16" height="16" viewBox="0 0 16 16" fill="none" xmlns="http://www.w3.org/2000/svg">
<g clip-path="url(#clip0)">
<path d="M8.00267 3.89209C5.734 3.89209 3.89734 5.73076 3.89734 7.99742C3.89734 10.2661 5.736 12.1028 8.00267 12.1028C10.2713 12.1028 12.108 10.2641 12.108 7.99742C12.108 5.72876 10.2693 3.89209 8.00267 3.89209ZM8.00267 10.6621C6.53 10.6621 5.33801 9.46942 5.33801 7.99742C5.33801 6.52542 6.53067 5.33276 8.00267 5.33276C9.47467 5.33276 10.6673 6.52542 10.6673 7.99742C10.668 9.46942 9.47534 10.6621 8.00267 10.6621Z" fill="white"/>
<path d="M11.2983 0.0517226C9.82627 -0.0169441 6.18027 -0.0136107 4.70694 0.0517226C3.41227 0.112389 2.27027 0.425056 1.3496 1.34572C-0.189065 2.88439 0.00760219 4.95773 0.00760219 7.99839C0.00760219 11.1104 -0.165731 13.1357 1.3496 14.6511C2.89427 16.1951 4.9976 15.9931 8.00227 15.9931C11.0849 15.9931 12.1489 15.9951 13.2389 15.5731C14.7209 14.9977 15.8396 13.6731 15.9489 11.2937C16.0183 9.82106 16.0143 6.17572 15.9489 4.70239C15.8169 1.89372 14.3096 0.190389 11.2983 0.0517226ZM13.6283 13.6331C12.6196 14.6417 11.2203 14.5517 7.98294 14.5517C4.6496 14.5517 3.31294 14.6011 2.3376 13.6231C1.21427 12.5051 1.4176 10.7097 1.4176 7.98773C1.4176 4.30439 1.0396 1.65172 4.73627 1.46239C5.5856 1.43239 5.8356 1.42239 7.9736 1.42239L8.0036 1.44239C11.5563 1.44239 14.3436 1.07039 14.5109 4.76639C14.5489 5.60972 14.5576 5.86306 14.5576 7.99773C14.5569 11.2924 14.6196 12.6371 13.6283 13.6331Z" fill="white"/>
<path d="M12.2706 4.68942C12.8005 4.68942 13.23 4.25991 13.23 3.73008C13.23 3.20026 12.8005 2.77075 12.2706 2.77075C11.7408 2.77075 11.3113 3.20026 11.3113 3.73008C11.3113 4.25991 11.7408 4.68942 12.2706 4.68942Z" fill="white"/>
</g>
<defs>
<clipPath id="clip0">
<rect width="16" height="16" fill="white"/>
</clipPath>
</defs>
</svg>
