<svg width="16" height="16" viewBox="0 0 16 16" fill="none" xmlns="http://www.w3.org/2000/svg">
<g clip-path="url(#clip0)">
<path d="M8.00279 3.89209C5.73413 3.89209 3.89746 5.73076 3.89746 7.99742C3.89746 10.2661 5.73613 12.1028 8.00279 12.1028C10.2715 12.1028 12.1081 10.2641 12.1081 7.99742C12.1081 5.72876 10.2695 3.89209 8.00279 3.89209ZM8.00279 10.6621C6.53013 10.6621 5.33813 9.46942 5.33813 7.99742C5.33813 6.52542 6.53079 5.33276 8.00279 5.33276C9.47479 5.33276 10.6675 6.52542 10.6675 7.99742C10.6681 9.46942 9.47546 10.6621 8.00279 10.6621Z" fill="#209E53"/>
<path d="M11.2983 0.0517226C9.82633 -0.0169441 6.18033 -0.0136107 4.707 0.0517226C3.41233 0.112389 2.27033 0.425056 1.34966 1.34572C-0.189003 2.88439 0.00766323 4.95773 0.00766323 7.99839C0.00766323 11.1104 -0.16567 13.1357 1.34966 14.6511C2.89433 16.1951 4.99766 15.9931 8.00233 15.9931C11.085 15.9931 12.149 15.9951 13.239 15.5731C14.721 14.9977 15.8397 13.6731 15.949 11.2937C16.0183 9.82106 16.0143 6.17572 15.949 4.70239C15.817 1.89372 14.3097 0.190389 11.2983 0.0517226ZM13.6283 13.6331C12.6197 14.6417 11.2203 14.5517 7.983 14.5517C4.64966 14.5517 3.313 14.6011 2.33766 13.6231C1.21433 12.5051 1.41766 10.7097 1.41766 7.98773C1.41766 4.30439 1.03966 1.65172 4.73633 1.46239C5.58566 1.43239 5.83566 1.42239 7.97366 1.42239L8.00366 1.44239C11.5563 1.44239 14.3437 1.07039 14.511 4.76639C14.549 5.60972 14.5577 5.86306 14.5577 7.99773C14.557 11.2924 14.6197 12.6371 13.6283 13.6331Z" fill="#209E53"/>
<path d="M12.2709 4.68948C12.8007 4.68948 13.2302 4.25997 13.2302 3.73015C13.2302 3.20032 12.8007 2.77081 12.2709 2.77081C11.741 2.77081 11.3115 3.20032 11.3115 3.73015C11.3115 4.25997 11.741 4.68948 12.2709 4.68948Z" fill="#209E53"/>
</g>
<defs>
<clipPath id="clip0">
<rect width="16" height="16" fill="white"/>
</clipPath>
</defs>
</svg>
