<svg width="18" height="13" viewBox="0 0 18 13" fill="none" xmlns="http://www.w3.org/2000/svg">
<path d="M16.4775 0.820312H2.2002C1.35902 0.820312 0.677734 1.50583 0.677734 2.34277V11.4775C0.677734 12.3195 1.36403 13 2.2002 13H16.4775C17.3116 13 18 12.3223 18 11.4775V2.34277C18 1.50731 17.3214 0.820312 16.4775 0.820312ZM16.2643 1.83529C15.9532 2.14468 10.6002 7.46951 10.4154 7.65335C10.1278 7.94093 9.74551 8.09927 9.33885 8.09927C8.93218 8.09927 8.54987 7.9409 8.26135 7.65241C8.13705 7.52875 2.84311 2.26273 2.41341 1.83529H16.2643ZM1.69271 11.271V2.55L6.07868 6.91286L1.69271 11.271ZM2.41405 11.985L6.7983 7.62866L7.54461 8.37104C8.02388 8.85031 8.66108 9.11424 9.33885 9.11424C10.0166 9.11424 10.6538 8.85031 11.1321 8.37199L11.8794 7.62866L16.2636 11.985H2.41405ZM16.985 11.271L12.599 6.91286L16.985 2.55V11.271Z" fill="#209E53"/>
</svg>
