<svg width="18" height="13" viewBox="0 0 18 13" fill="none" xmlns="http://www.w3.org/2000/svg">
<path d="M16.1697 0H1.55811C0.697237 0 0 0.701565 0 1.55811V10.9068C0 11.7684 0.702362 12.4649 1.55811 12.4649H16.1697C17.0234 12.4649 17.7278 11.7713 17.7278 10.9068V1.55811C17.7278 0.703089 17.0334 0 16.1697 0ZM15.9515 1.03874C15.6332 1.35538 10.1548 6.80489 9.96567 6.99304C9.67136 7.28735 9.2801 7.44939 8.86392 7.44939C8.44773 7.44939 8.05647 7.28732 7.76119 6.99207C7.63398 6.86552 2.21608 1.47619 1.77631 1.03874H15.9515ZM1.03874 10.6954V1.77019L5.52741 6.23521L1.03874 10.6954ZM1.77697 11.4261L6.26388 6.96777L7.02767 7.72753C7.51816 8.21803 8.17028 8.48814 8.86392 8.48814C9.55755 8.48814 10.2097 8.21803 10.6992 7.7285L11.464 6.96777L15.9509 11.4261H1.77697ZM16.6891 10.6954L12.2004 6.23521L16.6891 1.77019V10.6954Z" fill="white"/>
</svg>
