<svg width="19" height="18" viewBox="0 0 19 18" fill="none" xmlns="http://www.w3.org/2000/svg">
<path d="M18.8424 6.83507C18.7774 6.63491 18.6044 6.48904 18.3962 6.45882L12.5466 5.60878L9.93046 0.308139C9.83736 0.119445 9.64517 0 9.43477 0C9.22433 0 9.03217 0.119445 8.93904 0.308139L6.32283 5.60878L0.473315 6.45882C0.265125 6.48904 0.092094 6.63491 0.027083 6.83503C-0.0379648 7.03519 0.0162847 7.25488 0.166982 7.40174L4.39962 11.5277L3.40058 17.3538C3.36498 17.5612 3.45026 17.7707 3.62049 17.8944C3.71679 17.9644 3.83085 18 3.94547 18C4.03348 18 4.12178 17.979 4.20264 17.9365L9.43473 15.1858L14.6666 17.9365C14.8529 18.0344 15.0786 18.0181 15.2488 17.8944C15.419 17.7707 15.5043 17.5611 15.4688 17.3537L14.4694 11.5277L18.7025 7.4017C18.8532 7.25488 18.9075 7.03519 18.8424 6.83507Z" fill=""/>
</svg>
