<svg width="17" height="17" viewBox="0 0 17 17" fill="none" xmlns="http://www.w3.org/2000/svg">
<path d="M10.4994 0.85C10.2785 0.85 10.0994 1.02916 10.0994 1.24999C10.0994 1.47082 10.2785 1.64998 10.4994 1.64998C13.1736 1.64998 15.3494 3.82584 15.3494 6.50002C15.3494 6.72086 15.5286 6.90002 15.7494 6.90002C15.9706 6.90002 16.1494 6.72075 16.1494 6.50002C16.1494 3.38444 13.615 0.85 10.4994 0.85Z" fill="white" stroke="white" stroke-width="0.3"/>
<path d="M10.4994 2.35C10.2785 2.35 10.0994 2.52916 10.0994 2.74999C10.0994 2.97082 10.2785 3.14998 10.4994 3.14998C12.3465 3.14998 13.8494 4.65283 13.8494 6.50001C13.8494 6.72085 14.0286 6.90001 14.2494 6.90001C14.4706 6.90001 14.6494 6.72074 14.6494 6.50001C14.6494 4.2117 12.788 2.35 10.4994 2.35Z" fill="white" stroke="white" stroke-width="0.3"/>
<path d="M10.4994 3.85C10.2785 3.85 10.0994 4.02916 10.0994 4.24999C10.0994 4.47082 10.2785 4.64998 10.4994 4.64998C11.5193 4.64998 12.3494 5.48008 12.3494 6.5C12.3494 6.72084 12.5286 6.9 12.7494 6.9C12.9706 6.9 13.1494 6.72073 13.1494 6.5C13.1494 5.03868 11.9607 3.85 10.4994 3.85Z" fill="white" stroke="white" stroke-width="0.3"/>
<path d="M14.5479 10.2326L14.5492 10.2328C15.4837 10.3643 16.1702 11.1709 16.1495 12.1108L16.1495 14.2882C16.1495 14.2883 16.1495 14.2884 16.1495 14.2885V14.2888H15.9995C16.0033 15.2281 15.2403 15.9961 14.2983 16.0001L14.5479 10.2326ZM14.5479 10.2326C13.8789 10.1446 13.2192 9.98037 12.5873 9.74505L14.5479 10.2326ZM15.3496 12.0963L15.3496 12.0963C15.3629 11.5611 14.9723 11.1007 14.4403 11.0255C13.714 10.93 12.9955 10.751 12.3072 10.4947L12.3069 10.4946C11.921 10.35 11.4822 10.4432 11.1896 10.7316C11.1895 10.7317 11.1894 10.7318 11.1893 10.7319L10.265 11.6543L10.2649 11.6543C10.138 11.7808 9.942 11.8083 9.78498 11.719C9.78493 11.719 9.78488 11.719 9.78483 11.719L9.859 11.5886C7.99574 10.5313 6.45047 8.98932 5.39097 7.12931L15.3496 12.0963ZM15.3496 12.0963V12.1001V12.1001V12.1001V12.1001V12.1001V12.1001V12.1002V12.1002V12.1002V12.1002V12.1002V12.1002V12.1002V12.1002V12.1002V12.1003V12.1003V12.1003V12.1003V12.1003V12.1003V12.1003V12.1003V12.1004V12.1004V12.1004V12.1004V12.1004V12.1004V12.1004V12.1004V12.1004V12.1005V12.1005V12.1005V12.1005V12.1005V12.1005V12.1005V12.1005V12.1006V12.1006V12.1006V12.1006V12.1006V12.1006V12.1006V12.1006V12.1006V12.1007V12.1007V12.1007V12.1007V12.1007V12.1007V12.1007V12.1007V12.1008V12.1008V12.1008V12.1008V12.1008V12.1008V12.1008V12.1008V12.1009V12.1009V12.1009V12.1009V12.1009V12.1009V12.1009V12.1009V12.1009V12.101V12.101V12.101V12.101V12.101V12.101V12.101V12.101V12.1011V12.1011V12.1011V12.1011V12.1011V12.1011V12.1011V12.1011V12.1012V12.1012V12.1012V12.1012V12.1012V12.1012V12.1012V12.1012V12.1013V12.1013V12.1013V12.1013V12.1013V12.1013V12.1013V12.1013V12.1013V12.1014V12.1014V12.1014V12.1014V12.1014V12.1014V12.1014V12.1014V12.1015V12.1015V12.1015V12.1015V12.1015V12.1015V12.1015V12.1015V12.1016V12.1016V12.1016V12.1016V12.1016V12.1016V12.1016V12.1016V12.1017V12.1017V12.1017V12.1017V12.1017V12.1017V12.1017V12.1017V12.1018V12.1018V12.1018V12.1018V12.1018V12.1018V12.1018V12.1018V12.1019V12.1019V12.1019V12.1019V12.1019V12.1019V12.1019V12.1019V12.1019V12.102V12.102V12.102V12.102V12.102V12.102V12.102V12.102V12.1021V12.1021V12.1021V12.1021V12.1021V12.1021V12.1021V12.1021V12.1022V12.1022V12.1022V12.1022V12.1022V12.1022V12.1022V12.1022V12.1023V12.1023V12.1023V12.1023V12.1023V12.1023V12.1023V12.1023V12.1024V12.1024V12.1024V12.1024V12.1024V12.1024V12.1024V12.1024V12.1025V12.1025V12.1025V12.1025V12.1025V12.1025V12.1025V12.1025V12.1026V12.1026V12.1026V12.1026V12.1026V12.1026V12.1026V12.1026V12.1027V12.1027V12.1027V12.1027V12.1027V12.1027V12.1027V12.1027V12.1028V12.1028V12.1028V12.1028V12.1028V12.1028V12.1028V12.1028V12.1029V12.1029V12.1029V12.1029V12.1029V12.1029V12.1029V12.1029V12.103V12.103V12.103V12.103V12.103V12.103V12.103V12.103V12.1031V12.1031V12.1031V12.1031V12.1031V12.1031V12.1031V12.1031V12.1032V12.1032V12.1032V12.1032V12.1032V12.1032V12.1032V12.1032V12.1033V12.1033V12.1033V12.1033V12.1033V12.1033V12.1033V12.1033V12.1034V12.1034V12.1034V12.1034V12.1034V12.1034V12.1034V12.1034V12.1035V12.1035V12.1035V12.1035V12.1035V12.1035V12.1035V12.1035V12.1036V12.1036V12.1036V12.1036V12.1036V12.1036V12.1036V12.1036V12.1037V12.1037V12.1037V12.1037V12.1037V12.1037V12.1037V12.1037V12.1037V12.1038V12.1038V12.1038V12.1038V12.1038V12.1038V12.1038V12.1038V12.1039V12.1039V12.1039V12.1039V12.1039V12.1039V12.1039V12.1039V12.104V12.104V12.104V12.104V12.104V12.104V12.104V12.104V12.1041V12.1041V12.1041V12.1041V12.1041V12.1041V12.1041V12.1041V12.1042V12.1042V12.1042V12.1042V12.1042V12.1042V12.1042V12.1042V12.1043V12.1043V12.1043V12.1043V12.1043V12.1043V12.1043V12.1043V12.1044V12.1044V12.1044V12.1044V12.1044V12.1044V12.1044V12.1044V12.1045V12.1045V12.1045V12.1045V12.1045V12.1045V12.1045V12.1045V12.1046V12.1046V12.1046V12.1046V12.1046V12.1046V12.1046V12.1046V12.1047V12.1047V12.1047V12.1047V12.1047V12.1047V12.1047V12.1047V12.1048V12.1048V12.1048V12.1048V12.1048V12.1048V12.1048V12.1048V12.1048V12.1049V12.1049V12.1049V12.1049V12.1049V12.1049V12.1049V12.1049V12.105V12.105V12.105V12.105V12.105V12.105V12.105V12.105V12.1051V12.1051V12.1051V12.1051V12.1051V12.1051V12.1051V12.1051V12.1052V12.1052V12.1052V12.1052V12.1052V12.1052V12.1052V12.1052V12.1053V12.1053V12.1053V12.1053V12.1053V12.1053V12.1053V12.1053V12.1053V12.1054V12.1054V12.1054V12.1054V12.1054V12.1054V12.1054V12.1054V12.1055V12.1055V12.1055V12.1055V12.1055V12.1055V12.1055V12.1055V12.1056V12.1056V12.1056V12.1056V12.1056V12.1056V12.1056V12.1056V12.1056V12.1057V12.1057V12.1057V12.1057V12.1057V12.1057V12.1057V12.1057V12.1058V12.1058V12.1058V12.1058V12.1058V12.1058V12.1058V12.1058V12.1059V12.1059V12.1059V12.1059V12.1059V12.1059V12.1059V12.1059V12.1059V12.106V12.106V12.106V12.106V12.106V12.106V12.106V12.106V12.1061V12.1061V12.1061V12.1061V12.1061V12.1061V12.1061V12.1061V12.1061V12.1062V12.1062V12.1062V12.1062V12.1062V12.1062V12.1062V12.1062V12.1063V12.1063V12.1063V12.1063V12.1063V12.1063V12.1063L15.3496 14.2901L15.3496 14.2907C15.3517 14.8711 14.8808 15.3463 14.299 15.3503L15.3496 12.0963ZM4.89372 0.850013H2.70674C2.65088 0.850013 2.5954 0.852739 2.5409 0.85761L2.54076 0.857622C2.04694 0.902208 1.59916 1.13656 1.28139 1.51657L1.28135 1.51661C0.963497 1.89702 0.812732 2.37903 0.857834 2.87633L0.857816 2.87633L0.858062 2.87865C1.10279 5.17893 1.89817 7.42052 3.15707 9.36019C4.30025 11.1553 5.85492 12.707 7.65179 13.8466L4.89372 0.850013ZM15.4996 12.1063V14.2901L14.4605 10.8768C15.068 10.9623 15.5148 11.4881 15.4996 12.1001V12.1063Z" fill="white" stroke="white" stroke-width="0.3"/>
</svg>
