<svg width="20" height="24" viewBox="0 0 20 24" fill="none" xmlns="http://www.w3.org/2000/svg"><path d="M9.915 12.67h.155c1.427-.025 2.581-.527 3.433-1.486 1.875-2.113 1.563-5.735 1.53-6.081-.123-2.595-1.35-3.837-2.362-4.416C11.916.253 11.035.019 10.05 0h-.083c-.54 0-1.602.088-2.62.667-1.022.58-2.268 1.821-2.39 4.436-.034.346-.346 3.968 1.529 6.081.847.96 2.001 1.461 3.428 1.485zM6.258 5.224c0-.015.005-.03.005-.04.16-3.49 2.639-3.865 3.7-3.865h.059c1.314.029 3.55.564 3.7 3.866 0 .014 0 .029.005.039.005.034.346 3.345-1.203 5.088-.613.691-1.431 1.032-2.507 1.042h-.049c-1.071-.01-1.894-.35-2.502-1.042-1.544-1.734-1.213-5.06-1.208-5.088z" fill="#fff"/><path d="M19.999 18.678v-.015c0-.039-.005-.078-.005-.122-.03-.964-.093-3.218-2.206-3.939l-.049-.014c-2.196-.56-4.022-1.826-4.041-1.84a.657.657 0 10-.755 1.075c.083.059 2.021 1.407 4.446 2.03 1.134.405 1.26 1.617 1.295 2.727 0 .044 0 .083.005.122.005.438-.024 1.115-.102 1.505-.79.447-3.881 1.996-8.585 1.996-4.684 0-7.795-1.553-8.589-2.001-.078-.39-.112-1.067-.102-1.505 0-.039.005-.078.005-.122.034-1.11.16-2.322 1.295-2.726 2.425-.623 4.363-1.977 4.446-2.03a.657.657 0 10-.755-1.077c-.02.015-1.836 1.28-4.041 1.84a.573.573 0 00-.05.015C.1 15.323.036 17.577.007 18.537c0 .043 0 .082-.005.121v.015c-.005.253-.01 1.553.249 2.206a.624.624 0 00.253.306c.146.098 3.647 2.328 9.504 2.328 5.858 0 9.359-2.235 9.505-2.328a.651.651 0 00.253-.306c.243-.648.238-1.948.234-2.201z" fill="#fff"/></svg>