<svg width="25" height="23" viewBox="0 0 25 23" fill="none" xmlns="http://www.w3.org/2000/svg"><path d="M6.984 15.976h14.354a.74.74 0 00.71-.53l2.921-9.808a.74.74 0 00-.71-.952H5.41l-.996-3.347a.74.74 0 00-.71-.53H.741a.74.74 0 100 1.482h2.41l.992 3.33a.718.718 0 00.01.033l2.635 8.848a2.896 2.896 0 00-2.698 2.886 2.896 2.896 0 002.893 2.893h.736a2.654 2.654 0 002.544 1.91 2.654 2.654 0 002.543-1.91h3.93a2.654 2.654 0 002.544 1.91 2.654 2.654 0 002.544-1.91h.954a.74.74 0 100-1.481h-.954a2.654 2.654 0 00-2.544-1.91 2.654 2.654 0 00-2.544 1.91h-3.93a2.654 2.654 0 00-2.543-1.91 2.654 2.654 0 00-2.544 1.91h-.736a1.413 1.413 0 01-1.411-1.412c0-.779.633-1.412 1.412-1.412zm10.865-9.809h5.417l-1.02 3.423H17.85V6.167zm0 4.905h3.956l-1.02 3.423H17.85v-3.423zm-5.48-4.905h3.999V9.59h-4V6.167zm0 4.905h3.999v3.423h-4v-3.423zm-1.482 3.423H8.331l-1.02-3.423h3.576v3.423zM5.851 6.167h5.036V9.59H6.87L5.85 6.167zM19.28 18.372a1.17 1.17 0 011.169 1.168 1.17 1.17 0 01-1.169 1.169 1.17 1.17 0 01-1.169-1.169 1.17 1.17 0 011.169-1.168zm-9.017 0a1.17 1.17 0 011.168 1.168 1.17 1.17 0 01-1.168 1.169 1.17 1.17 0 01-1.169-1.169 1.17 1.17 0 011.169-1.168z" fill="#535C67"/></svg>