<svg width="53" height="53" viewBox="0 0 53 53" fill="none" xmlns="http://www.w3.org/2000/svg"><path d="M12.367 34.892a5.305 5.305 0 00-5.3 5.3c0 2.923 2.377 5.3 5.3 5.3s5.3-2.377 5.3-5.3-2.377-5.3-5.3-5.3zm0 8.833a3.537 3.537 0 01-3.533-3.533 3.537 3.537 0 013.533-3.534 3.537 3.537 0 013.533 3.534 3.537 3.537 0 01-3.533 3.533zM42.4 34.892a5.305 5.305 0 00-5.3 5.3c0 2.923 2.377 5.3 5.3 5.3s5.3-2.377 5.3-5.3-2.377-5.3-5.3-5.3zm0 8.833a3.537 3.537 0 01-3.533-3.533 3.537 3.537 0 013.533-3.534 3.537 3.537 0 013.533 3.534 3.537 3.537 0 01-3.533 3.533z" fill="#209E53"/><path d="M52.86 29.997l-7.95-12.366a.883.883 0 00-.743-.406H34.45a.883.883 0 00-.883.883v22.084c0 .488.395.883.883.883h3.533v-1.767h-2.65V18.992h8.352l7.548 11.743v8.574h-4.416v1.766h5.3a.882.882 0 00.883-.883v-9.717a.881.881 0 00-.14-.478z" fill="#209E53"/><path d="M38.867 28.708v-6.183h7.066v-1.767h-7.95a.883.883 0 00-.883.884v7.95c0 .488.395.883.883.883h13.25v-1.767H38.867zM34.45 11.042H.883a.884.884 0 00-.883.883v28.267c0 .488.396.883.883.883H7.95v-1.767H1.767v-26.5h31.8v26.5H16.783v1.767H34.45a.882.882 0 00.883-.883V11.925a.883.883 0 00-.883-.883z" fill="#209E53"/><path d="M6.183 35.775h-5.3v1.767h5.3v-1.767zm27.384 0H18.55v1.767h15.017v-1.767zm18.55 0h-3.533v1.767h3.533v-1.767zm-17.667-21.2H3.534v1.767H34.45v-1.767zm-21.2 24.733h-1.767v1.767h1.767v-1.767zm30.033 0h-1.766v1.767h1.766v-1.767zM15.9 7.508H3.534v1.767H15.9V7.508zm-14.133 0H0v1.767h1.767V7.508z" fill="#209E53"/></svg>