<svg width="37" height="38" viewBox="0 0 37 38" fill="none" xmlns="http://www.w3.org/2000/svg"><path d="M19.727 25.015h9.864c.37 0 .616-.253.616-.633v-5.699c0-.38-.246-.633-.616-.633h-9.864c-.37 0-.616.254-.616.633v5.699c0 .38.246.633.616.633zm.617-5.698h8.63v4.432h-8.63v-4.432zM3.083 16.784h4.932c.37 0 .616-.253.616-.633s-.247-.633-.616-.633H3.083c-.37 0-.617.253-.617.633s.247.633.617.633zm7.397 0h4.932c.37 0 .617-.253.617-.633s-.247-.633-.617-.633H10.48c-.37 0-.616.253-.616.633s.246.633.616.633zm-7.397 2.533h8.014c.37 0 .616-.254.616-.634s-.246-.633-.616-.633H3.083c-.37 0-.617.254-.617.633 0 .38.247.634.617.634zm12.329-1.267h-1.85c-.37 0-.616.253-.616.633s.246.634.616.634h1.85c.37 0 .616-.254.616-.634s-.246-.633-.616-.633z" fill="#209E53"/><path d="M36.434 10.2c-.432-.57-.987-.887-1.665-.95l-1.48-.184V6.02c0-1.393-1.11-2.533-2.465-2.533H2.466C1.11 3.488 0 4.628 0 6.021v20.261c0 1.143.748 2.115 1.767 2.427-.032 1.28.912 2.392 2.178 2.51l28.482 3.293h.246c1.233 0 2.343-.95 2.466-2.153l1.85-20.323c.061-.634-.124-1.33-.555-1.836zM1.233 7.92h30.824v3.799H1.233V7.92zm1.233-3.165h28.358c.678 0 1.233.57 1.233 1.266v.633H1.233V6.02c0-.697.555-1.266 1.233-1.266zM1.233 26.28V12.985h30.824v13.296c0 .697-.555 1.266-1.233 1.266H2.466c-.678 0-1.233-.57-1.233-1.266zm34.522-14.499l-1.849 20.324a1.253 1.253 0 01-1.356 1.14L4.13 29.953c-.616-.063-1.048-.57-1.11-1.14h27.804c1.356 0 2.465-1.139 2.465-2.532V10.262l1.418.127c.309 0 .617.19.802.444.185.253.308.633.246.95z" fill="#209E53"/></svg>