<svg width="42" height="42" viewBox="0 0 42 42" fill="none" xmlns="http://www.w3.org/2000/svg"><g clip-path="url(#clip0)" fill="#209E53"><path d="M41.3 40.25H35a.7.7 0 100 1.4h6.3a.7.7 0 100-1.4zm-9.1 0H.7a.7.7 0 000 1.4h31.5a.7.7 0 100-1.4zM0 38.15a.7.7 0 00.7.7h40.6a.7.7 0 100-1.4h-2.93c.083-.224.127-.461.129-.7v-13.3a2.1 2.1 0 00-2.1-2.1h-3.5a2.1 2.1 0 00-2.1 2.1v2.8h-1.4v-4.9c0-.536-.208-1.051-.578-1.439l3.09-5.561 1.89 1.894a.7.7 0 00.99-.99l-2.172-2.176 1.293-2.327 1.994 1.994a.7.7 0 00.99-.99L34.62 9.48l1.54-2.78 1.844 1.844a.7.7 0 00.99-.99L36.867 5.43l1.793-3.227 2.144 2.143a.7.7 0 00.99-.99l-2.8-2.8a.7.7 0 00-1.107.155L27.573 19.277a2.083 2.083 0 00-.273-.027v-2.1a1.4 1.4 0 00-1.4-1.4v-9.1a4.204 4.204 0 00-4.2-4.2h-1.4a4.204 4.204 0 00-4.2 4.2v9.1a1.4 1.4 0 00-1.4 1.4v2.1a2.05 2.05 0 00-.273.027L4.112.71A.7.7 0 003.005.558l-2.8 2.8a.7.7 0 00.99.987L3.339 2.2l1.793 3.227-2.127 2.127a.7.7 0 10.99.99L5.839 6.7l1.54 2.778-2.274 2.276a.7.7 0 10.99.99l1.994-1.994 1.291 2.327-2.176 2.177a.7.7 0 10.99.99l1.894-1.895 3.09 5.56c-.37.388-.577.904-.578 1.44v4.9h-1.4v-2.8a2.1 2.1 0 00-2.1-2.1H5.6a2.1 2.1 0 00-2.1 2.1v13.3c.002.239.046.476.129.7H.7a.7.7 0 00-.7.7zm32.2-4.61l1.195-1.195a.7.7 0 00-.99-.99l-.205.205v-1.52l1.195-1.195a.7.7 0 00-.99-.99l-.205.205v-1.52l1.195-1.195a.7.7 0 00-.99-.99l-.205.205v-1.11a.7.7 0 01.7-.7h3.5a.7.7 0 01.7.7v1.11l-.205-.205a.7.7 0 00-.99.99L37.1 26.54v1.52l-.205-.205a.7.7 0 00-.99.99L37.1 30.04v1.52l-.205-.205a.7.7 0 00-.99.99L37.1 33.54v1.52l-.205-.205a.7.7 0 00-.99.99l1.146 1.146a.695.695 0 01-.651.459h-3.5a.695.695 0 01-.651-.46l1.146-1.145a.7.7 0 00-.99-.99l-.205.205v-1.52zM17.5 6.65a2.8 2.8 0 012.8-2.8h1.4a2.8 2.8 0 012.8 2.8v9.1h-7v-9.1zm-1.4 10.5h9.8v2.1h-9.8v-2.1zm-2.1 4.2a.7.7 0 01.7-.7h12.6a.7.7 0 01.7.7v4.9h-.7v-3.5a.7.7 0 00-.7-.7h-2.1a.7.7 0 10-1.4 0h-1.4a.7.7 0 10-1.4 0h-1.4a.7.7 0 10-1.4 0h-2.1a.7.7 0 00-.7.7v3.5H14v-4.9zm11.9 2.1v2.8h-1.4v-2.8h1.4zm-2.8 0v2.8h-1.4v-2.8h1.4zm-2.8 0v2.8h-1.4v-2.8h1.4zm-2.8 0v2.8h-1.4v-2.8h1.4zm-6.3 4.2h19.6v4.2h-2.1v-.7a1.4 1.4 0 00-1.4-1.4H14.7a1.4 1.4 0 00-1.4 1.4v.7h-2.1v-4.2zm16.1 3.5v2.8H14.7v-2.8h12.6zm-16.1 5.6v-3.5h2.1v.7a1.4 1.4 0 001.4 1.4h12.6a1.4 1.4 0 001.4-1.4v-.7h2.1v3.5c.002.239.046.476.129.7H11.07c.083-.224.127-.461.129-.7zm-6.3-3.21l1.195-1.195a.7.7 0 00-.99-.99l-.205.205v-1.52l1.195-1.195a.7.7 0 00-.99-.99l-.205.205v-1.52l1.195-1.195a.7.7 0 00-.99-.99l-.205.205v-1.11a.7.7 0 01.7-.7h3.5a.7.7 0 01.7.7v1.11l-.205-.205a.7.7 0 00-.99.99L9.8 26.54v1.52l-.205-.205a.7.7 0 00-.99.99L9.8 30.04v1.52l-.205-.205a.7.7 0 00-.99.99L9.8 33.54v1.52l-.205-.205a.7.7 0 00-.99.99l1.146 1.146a.695.695 0 01-.65.459H5.6a.695.695 0 01-.651-.46l1.146-1.145a.7.7 0 00-.99-.99l-.205.205v-1.52z"/></g><defs><clipPath id="clip0"><path fill="#fff" d="M0 0h42v42H0z"/></clipPath></defs></svg>