<svg width="33" height="33" viewBox="0 0 33 33" fill="none" xmlns="http://www.w3.org/2000/svg"><g clip-path="url(#clip0)" fill="#209E53"><path d="M5.483 29.322a.649.649 0 00-.456-.19.649.649 0 00-.644.645.649.649 0 00.644.645.65.65 0 00.645-.645.65.65 0 00-.189-.455zM30.262 11.79a.648.648 0 00-.911 0 .65.65 0 00-.189.457.65.65 0 00.645.644.648.648 0 00.645-.644.647.647 0 00-.19-.456z"/><path d="M32.811.189A.645.645 0 0032.355 0H16.5a.645.645 0 00-.644.645V2.49l-6.11 1.637a.644.644 0 00-.455.789l3.166 11.817-2.74 2.74a1.933 1.933 0 00-1.595-.845H1.935A1.936 1.936 0 000 20.561v10.505A1.937 1.937 0 001.935 33h6.187c.906 0 1.668-.626 1.876-1.468l.767.668c.591.516 1.35.8 2.134.8h19.457a.645.645 0 00.644-.645V.645a.645.645 0 00-.189-.456zM8.766 31.067a.645.645 0 01-.644.644H1.934a.645.645 0 01-.644-.644V20.56c0-.355.29-.645.644-.645h2.45v7.425a.645.645 0 001.289 0v-7.425h2.449c.355 0 .644.29.644.645v10.506zm1.937-25.863l5.153-1.381v2.388l-.432.116a.644.644 0 00-.456.79 1.737 1.737 0 01-1.227 2.125.645.645 0 00-.455.79l2.512 9.304h-1.294l-.666-2.608a.646.646 0 00-.108-.227L10.703 5.204zm5.153 3.963v5.439l-1.176-4.353a3.02 3.02 0 001.176-1.086zm9.26 22.544H12.899c-.473 0-.93-.171-1.287-.482l-1.557-1.358v-8.914l2.814-2.814.51 1.997c.074.285.33.485.625.485h12.672a.903.903 0 010 1.805h-6.493a.645.645 0 000 1.289h8.51a.903.903 0 010 1.805h-8.51a.645.645 0 000 1.289h7.131a.903.903 0 010 1.804h-7.131a.645.645 0 000 1.29h4.933a.903.903 0 010 1.804zm6.595 0h-4.6a2.177 2.177 0 000-1.805h.203a2.194 2.194 0 001.959-3.172 2.195 2.195 0 001.611-2.113c0-.489-.16-.94-.432-1.305v-8.17a.645.645 0 00-1.29 0v7.335a2.191 2.191 0 00-.469-.051h-.021a2.194 2.194 0 00-1.996-3.094H25.64a3.089 3.089 0 001.872-2.836c0-1.7-1.383-3.085-3.084-3.085a3.088 3.088 0 00-3.085 3.085 3.09 3.09 0 001.873 2.836h-3.523V7.081a3.034 3.034 0 002.31-2.31h4.849a3.034 3.034 0 002.31 2.31v2.004a.645.645 0 001.29 0v-2.58a.645.645 0 00-.645-.644 1.737 1.737 0 01-1.735-1.735.645.645 0 00-.645-.645h-5.999a.645.645 0 00-.644.645c0 .957-.779 1.735-1.735 1.735a.645.645 0 00-.645.645v12.83h-1.259V1.29h14.566v30.42zm-7.283-13.415c-.99 0-1.796-.806-1.796-1.796s.806-1.796 1.796-1.796 1.796.806 1.796 1.796-.806 1.796-1.796 1.796z"/></g><defs><clipPath id="clip0"><path fill="#fff" d="M0 0h33v33H0z"/></clipPath></defs></svg>