<svg width="43" height="43" viewBox="0 0 43 43" fill="none" xmlns="http://www.w3.org/2000/svg"><g clip-path="url(#clip0)" fill="#209E53"><path d="M33.983 42.174l-2.259-7.213a.295.295 0 01-.006-.14l.526-2.65.038-.202.021-.116a.629.629 0 10-1.236-.232l-.022.123-.034.183-.526 2.65c-.048.243-.037.497.032.735l2.259 7.213a.63.63 0 001.207-.35zm-2.386-21.492v5.277c0 1.007-.05 2.029-.151 3.037a.629.629 0 101.251.124c.105-1.049.157-2.112.157-3.16v-5.278a2.301 2.301 0 00-2.298-2.298 2.31 2.31 0 00-2.291 2.113l-.34 4.216a13.227 13.227 0 00-4.828 7.516l-.453 1.973a.629.629 0 001.226.281l.453-1.973a11.966 11.966 0 014.436-6.852l.149-.112a.629.629 0 00.247-.451l.363-4.496c.043-.538.5-.958 1.038-.958.574 0 1.041.467 1.041 1.041zm-9.071 18.606a.895.895 0 00-.481-.593l-.297-.143a7.235 7.235 0 01-3.632-3.962l-.237-.624h3.305a.629.629 0 000-1.258h-8.732a2.206 2.206 0 01-2.204-2.203V10.38a.629.629 0 00-1.257 0v20.125a3.465 3.465 0 003.46 3.46h4.083l.406 1.071a8.488 8.488 0 004.262 4.648l.144.07.683 2.768a.629.629 0 101.22-.302l-.723-2.932zM9.62 8.33a.629.629 0 00.628-.63V3.462c0-1.215.989-2.204 2.204-2.204h1.852v.449a2.51 2.51 0 002.508 2.508h4.846a2.51 2.51 0 002.508-2.508v-.449h1.852c1.216 0 2.204.989 2.204 2.204v13.522a.629.629 0 101.258 0V3.46A3.465 3.465 0 0026.018 0H12.452A3.465 3.465 0 008.99 3.461v4.24c0 .347.281.628.628.628zm13.289-6.624c0 .69-.561 1.25-1.25 1.25h-4.847c-.69 0-1.25-.56-1.25-1.25v-.449h7.347v.449z"/><path d="M22.383 24.854a.629.629 0 000 1.257h1.672a1.19 1.19 0 001.19-1.19v-2.458a1.19 1.19 0 00-1.19-1.19h-9.64a1.19 1.19 0 00-1.188 1.19v2.459a1.19 1.19 0 001.189 1.189h5.288a.629.629 0 000-1.258h-5.22v-2.322h9.503v2.323h-1.604zM25.434 8.37a.629.629 0 00-.889-.014l-2.47 2.394a1.437 1.437 0 00-.724-.195H17.12a1.45 1.45 0 00-1.449 1.448v3.969c0 .798.65 1.448 1.449 1.448h4.23a1.45 1.45 0 001.449-1.448v-3.969a1.46 1.46 0 00-.014-.19L25.42 9.26a.629.629 0 00.014-.89zm-3.892 7.602a.19.19 0 01-.191.19H17.12a.191.191 0 01-.191-.19v-3.97c0-.104.086-.19.19-.19h3.86l-1.944 1.882-.384-.335a.629.629 0 00-.826.948l.82.715a.627.627 0 00.85-.023l2.047-1.982v2.955z"/></g><defs><clipPath id="clip0"><path fill="#fff" d="M0 0h43v43H0z"/></clipPath></defs></svg>