<svg width="16" height="16" viewBox="0 0 16 16" fill="none" xmlns="http://www.w3.org/2000/svg"><g clip-path="url(#clip0)" fill="#209E53"><path d="M8.003 3.892a4.105 4.105 0 10-.001 8.21 4.105 4.105 0 000-8.21zm0 6.77a2.664 2.664 0 110-5.33 2.664 2.664 0 110 5.33z"/><path d="M11.298.052c-1.472-.069-5.118-.066-6.591 0C3.412.112 2.27.425 1.35 1.346-.19 2.884.008 4.958.008 7.998c0 3.112-.174 5.138 1.342 6.653 1.544 1.544 3.648 1.342 6.652 1.342 3.083 0 4.147.002 5.237-.42 1.482-.575 2.6-1.9 2.71-4.28.07-1.472.065-5.117 0-6.59-.132-2.81-1.64-4.513-4.65-4.651zm2.33 13.581c-1.008 1.009-2.408.919-5.645.919-3.333 0-4.67.05-5.645-.929-1.124-1.118-.92-2.913-.92-5.635 0-3.684-.378-6.336 3.318-6.526.85-.03 1.1-.04 3.238-.04l.03.02c3.552 0 6.34-.372 6.507 3.324.038.844.047 1.097.047 3.232-.001 3.294.062 4.64-.93 5.635z"/><path d="M12.27 4.69a.96.96 0 100-1.92.96.96 0 000 1.92z"/></g><defs><clipPath id="clip0"><path fill="#fff" d="M0 0h16v16H0z"/></clipPath></defs></svg>