<svg width="18" height="13" viewBox="0 0 18 13" fill="none" xmlns="http://www.w3.org/2000/svg"><path d="M16.17 0H1.558A1.56 1.56 0 000 1.558v9.349a1.56 1.56 0 001.558 1.558H16.17a1.56 1.56 0 001.558-1.558V1.558A1.56 1.56 0 0016.17 0zm-.219 1.039L9.966 6.993a1.548 1.548 0 01-1.102.456 1.55 1.55 0 01-1.103-.457L1.776 1.04h14.175zM1.04 10.695V1.77l4.488 4.465-4.488 4.46zm.738.731l4.487-4.458.764.76c.49.49 1.142.76 1.836.76.694 0 1.346-.27 1.835-.76l.765-.76 4.487 4.458H1.777zm14.912-.73L12.2 6.235l4.49-4.466v8.925z" fill="#fff"/></svg>