<svg width="18" height="13" viewBox="0 0 18 13" fill="none" xmlns="http://www.w3.org/2000/svg"><path d="M16.477.82H2.2C1.36.82.678 1.506.678 2.343v9.134C.678 12.32 1.364 13 2.2 13h14.277c.835 0 1.523-.678 1.523-1.523V2.343C18 1.507 17.321.82 16.477.82zm-.213 1.015c-.31.31-5.664 5.635-5.849 5.818a1.51 1.51 0 01-1.076.446c-.407 0-.79-.158-1.078-.447L2.413 1.835h13.851zM1.693 11.271V2.55l4.386 4.363-4.386 4.358zm.721.714l4.384-4.356.747.742a2.52 2.52 0 001.794.743 2.52 2.52 0 001.793-.742l.747-.743 4.385 4.356H2.414zm14.571-.714l-4.386-4.358 4.386-4.363v8.721z" fill="#209E53"/></svg>