<svg width="14" height="19" viewBox="0 0 14 19" fill="none" xmlns="http://www.w3.org/2000/svg"><path d="M6.68 0A6.687 6.687 0 000 6.68c0 1.244.345 2.459.997 3.512L6.3 18.737a.557.557 0 00.473.263h.005a.557.557 0 00.473-.27l5.167-8.628a6.672 6.672 0 00.942-3.422A6.687 6.687 0 006.68 0zm4.782 9.53l-4.698 7.844-4.82-7.768a5.56 5.56 0 01-.838-2.926A5.585 5.585 0 016.68 1.106c3.069 0 5.57 2.504 5.57 5.574a5.561 5.561 0 01-.788 2.85z" fill="#209E53"/><path d="M6.68 3.34a3.344 3.344 0 00-3.34 3.34c0 1.83 1.474 3.34 3.34 3.34 1.889 0 3.34-1.53 3.34-3.34a3.344 3.344 0 00-3.34-3.34zm0 5.574A2.236 2.236 0 014.446 6.68 2.242 2.242 0 016.68 4.446 2.239 2.239 0 018.91 6.68a2.231 2.231 0 01-2.23 2.234z" fill="#209E53"/></svg>