<svg width="17" height="17" viewBox="0 0 17 17" fill="none" xmlns="http://www.w3.org/2000/svg"><path d="M10.5.85a.4.4 0 000 .8 4.856 4.856 0 014.85 4.85.4.4 0 00.8 0A5.656 5.656 0 0010.5.85z" fill="#fff"/><path d="M10.5 2.35a.4.4 0 000 .8 3.354 3.354 0 013.35 3.35.4.4 0 00.8 0 4.155 4.155 0 00-4.15-4.15z" fill="#fff"/><path d="M10.5 3.85a.4.4 0 000 .8c1.02 0 1.85.83 1.85 1.85a.4.4 0 00.8 0 2.653 2.653 0 00-2.65-2.65zm4.048 6.383h.001a1.856 1.856 0 011.6 1.878v2.177H16A1.708 1.708 0 0114.3 16l.249-5.767zm0 0a8.984 8.984 0 01-1.96-.488l1.96.488zm.802 1.863a1.056 1.056 0 00-.91-1.07 9.78 9.78 0 01-2.133-.531 1.065 1.065 0 00-1.117.237l-.925.922a.4.4 0 01-.48.065l.074-.13a11.906 11.906 0 01-4.468-4.46l9.959 4.967zm0 0v2.194a1.058 1.058 0 01-1.051 1.06l1.05-3.254zM4.894.85H2.707a1.849 1.849 0 00-1.425.667c-.319.38-.47.862-.424 1.36v.002c.245 2.3 1.04 4.542 2.3 6.481a14.695 14.695 0 004.494 4.487L4.894.85zM15.5 12.106v2.184l-1.04-3.413A1.206 1.206 0 0115.5 12.1v.006z" fill="#fff"/></svg>