<svg width="15" height="9" viewBox="0 0 15 9" fill="none" xmlns="http://www.w3.org/2000/svg"><path d="M14.92 8.128a1.069 1.069 0 00-.05-.103c-.26-.493-.758-1.098-1.492-1.815l-.016-.016-.007-.008-.008-.009h-.008a9.304 9.304 0 01-.633-.673c-.161-.22-.197-.44-.11-.666.063-.17.298-.528.704-1.075.213-.29.382-.523.507-.698C14.708 1.805 15.1 1 14.98.65l-.047-.082c-.03-.05-.112-.094-.242-.136a1.171 1.171 0 00-.5-.02l-2.249.016a.278.278 0 00-.156.004l-.102.025-.039.02-.03.025a.354.354 0 00-.087.087.572.572 0 00-.078.143 13.716 13.716 0 01-.835 1.848c-.193.34-.37.634-.532.883-.16.25-.296.433-.406.55a2.988 2.988 0 01-.296.284c-.089.071-.157.101-.203.09a5.502 5.502 0 01-.133-.033.537.537 0 01-.176-.201.936.936 0 01-.09-.32 3.706 3.706 0 01-.023-.727c.005-.17.008-.285.008-.345 0-.208.004-.434.011-.678l.02-.579c.005-.142.008-.293.008-.452 0-.158-.01-.283-.028-.373a1.325 1.325 0 00-.081-.263.437.437 0 00-.16-.197.878.878 0 00-.262-.111A4.95 4.95 0 007.216 0c-.968-.01-1.59.055-1.866.197a1.06 1.06 0 00-.297.247c-.094.12-.107.186-.04.197.313.049.535.167.665.353l.047.098c.036.072.073.198.11.378a4 4 0 01.07.6c.025.4.025.742 0 1.026-.027.285-.051.507-.075.666a1.384 1.384 0 01-.2.566.138.138 0 01-.038.041.56.56 0 01-.211.042c-.073 0-.161-.039-.266-.116a1.913 1.913 0 01-.324-.316 4.231 4.231 0 01-.378-.562 9.99 9.99 0 01-.438-.854l-.125-.239a20.95 20.95 0 01-.32-.669 13.25 13.25 0 01-.36-.85.54.54 0 00-.187-.263L2.944.518A.798.798 0 002.64.395L.5.412C.282.412.134.464.056.568L.023.617A.277.277 0 000 .748c0 .06.016.135.047.222a27.74 27.74 0 001.019 2.234c.367.717.686 1.295.957 1.733.27.438.546.851.828 1.24.28.389.467.638.558.747.091.11.163.192.215.247l.195.197c.125.131.308.289.55.472.243.184.51.364.805.542.294.178.637.323 1.027.435.39.113.77.158 1.14.136h.898c.183-.016.32-.077.414-.18l.031-.042a.56.56 0 00.059-.152.875.875 0 00.027-.225 2.841 2.841 0 01.051-.637c.039-.189.083-.331.133-.427a1.049 1.049 0 01.3-.361.499.499 0 01.063-.029c.125-.044.272-.001.441.127.17.13.328.288.477.477.148.189.327.4.535.636.208.236.39.41.546.526l.157.099c.104.065.24.126.406.18a.835.835 0 00.437.041l2-.032c.197 0 .351-.035.46-.103.11-.069.175-.144.195-.226a.669.669 0 00.004-.28 1.068 1.068 0 00-.055-.217z" fill="#fff"/></svg>